<?xml version="1.0" encoding="UTF-8" standalone="no"?>
<svg
   width="310.52023"
   zoomAndPan="magnify"
   viewBox="0 0 232.89017 78.953125"
   height="105.27084"
   preserveAspectRatio="xMidYMid"
   version="1.2"
   id="svg14"
   sodipodi:docname="logo.svg"
   inkscape:version="1.3.2 (091e20e, 2023-11-25)"
   xmlns:inkscape="http://www.inkscape.org/namespaces/inkscape"
   xmlns:sodipodi="http://sodipodi.sourceforge.net/DTD/sodipodi-0.dtd"
   xmlns="http://www.w3.org/2000/svg"
   xmlns:svg="http://www.w3.org/2000/svg">
  <sodipodi:namedview
     id="namedview14"
     pagecolor="#ffffff"
     bordercolor="#000000"
     borderopacity="0.25"
     inkscape:showpageshadow="2"
     inkscape:pageopacity="0.0"
     inkscape:pagecheckerboard="0"
     inkscape:deskcolor="#d1d1d1"
     inkscape:zoom="1.1763257"
     inkscape:cx="197.64934"
     inkscape:cy="35.279345"
     inkscape:window-width="1680"
     inkscape:window-height="1022"
     inkscape:window-x="0"
     inkscape:window-y="0"
     inkscape:window-maximized="1"
     inkscape:current-layer="svg14" />
  <defs
     id="defs1" />
  <g
     id="7d1c2c6fe4"
     transform="matrix(0.8199073,0,0,0.8199073,-43.903226,-111.75384)"
     inkscape:label="7d1c2c6fe4">
    <g
       style="fill:#fefefe;fill-opacity:1"
       id="g2">
      <g
         transform="translate(73.833296,206.74967)"
         id="g1">
        <path
           style="stroke:none"
           d="m 41.453125,-31.640625 c 3.382813,3.710937 5.078125,8.242187 5.078125,13.59375 0,5.355469 -1.695312,9.882813 -5.078125,13.578125 -3.386719,3.6875 -7.6875,5.53125 -12.90625,5.53125 -4.792969,0 -8.742187,-1.71875 -11.84375,-5.15625 H 16.5625 V 0 H 4.234375 v -60.625 h 12.46875 v 27.90625 c 3.101563,-3 7.050781,-4.5 11.84375,-4.5 5.21875,0 9.519531,1.859375 12.90625,5.578125 z m -10.5,19.6875 c 1.550781,-1.570313 2.328125,-3.601563 2.328125,-6.09375 0,-2.488281 -0.8125,-4.53125 -2.4375,-6.125 -1.625,-1.601563 -3.636719,-2.40625 -6.03125,-2.40625 -2.34375,0 -4.328125,0.804687 -5.953125,2.40625 -1.625,1.59375 -2.4375,3.636719 -2.4375,6.125 0,2.449219 0.785156,4.46875 2.359375,6.0625 1.582031,1.59375 3.59375,2.390625 6.03125,2.390625 2.539062,0 4.585938,-0.785156 6.140625,-2.359375 z m 0,0"
           id="path1" />
      </g>
    </g>
    <g
       style="fill:#fefefe;fill-opacity:1"
       id="g4">
      <g
         transform="translate(115.98452,206.74967)"
         id="g3">
        <path
           style="stroke:none"
           d="M 6.703125,-4.46875 C 3.316406,-8.164062 1.625,-12.691406 1.625,-18.046875 c 0,-5.351563 1.691406,-9.882813 5.078125,-13.59375 3.382813,-3.71875 7.679687,-5.578125 12.890625,-5.578125 4.800781,0 8.75,1.5 11.84375,4.5 v -3.453125 H 43.921875 V 0 H 31.578125 V -4.09375 H 31.4375 c -3.09375,3.4375 -7.042969,5.15625 -11.84375,5.15625 -5.210938,0 -9.507812,-1.84375 -12.890625,-5.53125 z m 10.59375,-19.703125 c -1.617187,1.59375 -2.421875,3.636719 -2.421875,6.125 0,2.492187 0.773438,4.523437 2.328125,6.09375 1.550781,1.574219 3.59375,2.359375 6.125,2.359375 2.445313,0 4.457031,-0.796875 6.03125,-2.390625 1.570313,-1.59375 2.359375,-3.613281 2.359375,-6.0625 0,-2.488281 -0.8125,-4.53125 -2.4375,-6.125 -1.617188,-1.601563 -3.601562,-2.40625 -5.953125,-2.40625 -2.398437,0 -4.40625,0.804687 -6.03125,2.40625 z m 0,0"
           id="path2" />
      </g>
    </g>
    <g
       style="fill:#fefefe;fill-opacity:1"
       id="g6">
      <g
         transform="translate(158.13575,206.74967)"
         id="g5">
        <path
           style="stroke:none"
           d="m 31.65625,-36.171875 h 14.375 l -28.40625,54.5 H 3.25 l 12.46875,-23.96875 -17.125,-30.53125 h 14.375 L 23.046875,-17.625 Z m 0,0"
           id="path4" />
      </g>
    </g>
    <g
       style="fill:#afa8ae;fill-opacity:1"
       id="g8">
      <g
         transform="translate(196.7659,206.74967)"
         id="g7">
        <path
           style="stroke:none"
           d="m 19.953125,-37.21875 c 2.0625,0 4.101563,0.234375 6.125,0.703125 2.019531,0.46875 3.523437,0.9375 4.515625,1.40625 l 1.484375,0.703125 -4.09375,8.1875 c -2.8125,-1.507812 -5.492187,-2.265625 -8.03125,-2.265625 -1.40625,0 -2.40625,0.15625 -3,0.46875 -0.585937,0.304687 -0.875,0.875 -0.875,1.71875 0,0.1875 0.01953,0.375 0.0625,0.5625 0.05078,0.1875 0.144531,0.367187 0.28125,0.53125 0.144531,0.167969 0.273437,0.308594 0.390625,0.421875 0.113281,0.117188 0.3125,0.246094 0.59375,0.390625 0.289062,0.136719 0.515625,0.242187 0.671875,0.3125 0.164063,0.07422 0.4375,0.183594 0.8125,0.328125 0.375,0.136719 0.65625,0.242188 0.84375,0.3125 0.1875,0.07422 0.503906,0.183594 0.953125,0.328125 0.445312,0.136719 0.789062,0.226563 1.03125,0.265625 1.457031,0.429688 2.722656,0.902344 3.796875,1.421875 1.082031,0.511719 2.222656,1.214844 3.421875,2.109375 1.195312,0.886719 2.125,2.011719 2.78125,3.375 0.664062,1.367188 1,2.917969 1,4.65625 0,8.230469 -5.714844,12.34375 -17.140625,12.34375 -2.585937,0 -5.042969,-0.402344 -7.375,-1.203125 -2.324219,-0.800781 -4,-1.597656 -5.03125,-2.390625 L 1.625,-3.8125 6.703125,-12.34375 c 0.375,0.335938 0.863281,0.726562 1.46875,1.171875 0.613281,0.449219 1.71875,1.0625 3.3125,1.84375 1.601563,0.773437 2.992187,1.15625 4.171875,1.15625 2.582031,0 3.875,-0.867187 3.875,-2.609375 0,-0.800781 -0.335938,-1.425781 -1,-1.875 -0.65625,-0.445312 -1.773438,-0.953125 -3.34375,-1.515625 -1.574219,-0.5625 -2.808594,-1.078125 -3.703125,-1.546875 -2.25,-1.175781 -4.039063,-2.503906 -5.359375,-3.984375 -1.3125,-1.476563 -1.96875,-3.441406 -1.96875,-5.890625 0,-3.664062 1.421875,-6.519531 4.265625,-8.5625 2.84375,-2.039062 6.6875,-3.0625 11.53125,-3.0625 z m 0,0"
           id="path6" />
      </g>
    </g>
    <g
       style="fill:#afa8ae;fill-opacity:1"
       id="g10">
      <g
         transform="translate(225.45359,206.74967)"
         id="g9">
        <path
           style="stroke:none"
           d="M 40.8125,-16.359375 H 14.59375 c 0,2.542969 0.820312,4.421875 2.46875,5.640625 1.644531,1.21875 3.429688,1.828125 5.359375,1.828125 2.019531,0 3.613281,-0.265625 4.78125,-0.796875 1.175781,-0.539062 2.519531,-1.613281 4.03125,-3.21875 L 40.25,-8.390625 C 36.488281,-2.085938 30.238281,1.0625 21.5,1.0625 c -5.449219,0 -10.125,-1.867188 -14.03125,-5.609375 -3.898438,-3.738281 -5.84375,-8.238281 -5.84375,-13.5 0,-5.257813 1.945312,-9.769531 5.84375,-13.53125 3.90625,-3.757813 8.582031,-5.640625 14.03125,-5.640625 5.738281,0 10.40625,1.65625 14,4.96875 3.59375,3.3125 5.390625,8.046875 5.390625,14.203125 0,0.84375 -0.02734,1.40625 -0.07813,1.6875 z m -25.859375,-6.90625 H 28.6875 c -0.28125,-1.875 -1.023438,-3.316406 -2.21875,-4.328125 -1.199219,-1.007812 -2.734375,-1.515625 -4.609375,-1.515625 -2.074219,0 -3.71875,0.542969 -4.9375,1.625 -1.21875,1.074219 -1.875,2.480469 -1.96875,4.21875 z m 0,0"
           id="path8" />
      </g>
    </g>
    <g
       style="fill:#afa8ae;fill-opacity:1"
       id="g12">
      <g
         transform="translate(261.96564,206.74967)"
         id="g11">
        <path
           style="stroke:none"
           d="m 23.46875,-27 c -2.34375,0 -4.367188,0.871094 -6.0625,2.609375 -1.6875,1.742187 -2.53125,3.828125 -2.53125,6.265625 0,2.5 0.84375,4.621094 2.53125,6.359375 1.695312,1.730469 3.71875,2.59375 6.0625,2.59375 1.132812,0 2.207031,-0.140625 3.21875,-0.421875 1.007812,-0.28125 1.75,-0.5625 2.21875,-0.84375 l 0.640625,-0.421875 4.21875,8.671875 c -0.324219,0.242188 -0.78125,0.539062 -1.375,0.890625 -0.585937,0.34375 -1.921875,0.824219 -4.015625,1.4375 -2.09375,0.613281 -4.339844,0.921875 -6.734375,0.921875 -5.3125,0 -9.980469,-1.867188 -14,-5.609375 C 3.628906,-8.285156 1.625,-12.765625 1.625,-17.984375 c 0,-5.257813 2.003906,-9.78125 6.015625,-13.5625 4.019531,-3.78125 8.6875,-5.671875 14,-5.671875 2.394531,0 4.601563,0.28125 6.625,0.84375 2.019531,0.5625 3.457031,1.125 4.3125,1.6875 l 1.1875,0.84375 -4.21875,8.53125 C 27.992188,-26.4375 25.96875,-27 23.46875,-27 Z m 0,0"
           id="path10" />
      </g>
    </g>
    <g
       style="fill:#afa8ae;fill-opacity:1"
       id="g14">
      <g
         transform="translate(290.58285,206.74967)"
         id="g13">
        <path
           style="stroke:none"
           d="m 12.265625,-15.09375 c 2.257813,0 4.175781,0.792969 5.75,2.375 1.570313,1.574219 2.359375,3.484375 2.359375,5.734375 0,2.210937 -0.789062,4.105469 -2.359375,5.6875 -1.574219,1.570313 -3.492187,2.359375 -5.75,2.359375 -2.210937,0 -4.101563,-0.789062 -5.671875,-2.359375 -1.574219,-1.582031 -2.359375,-3.476563 -2.359375,-5.6875 0,-2.25 0.785156,-4.160156 2.359375,-5.734375 1.570312,-1.582031 3.460938,-2.375 5.671875,-2.375 z m 0,0"
           id="path12" />
      </g>
    </g>
  </g>
  <text
     xml:space="preserve"
     style="font-style:normal;font-variant:normal;font-weight:normal;font-stretch:normal;font-size:14px;line-height:0;font-family:STIXIntegralsUp;-inkscape-font-specification:STIXIntegralsUp;letter-spacing:3px;word-spacing:0px;fill:#ddff1f;fill-opacity:1;stroke:#eebcfd;stroke-width:0;stroke-dasharray:none;stroke-dashoffset:0;stroke-opacity:1;paint-order:stroke fill markers"
     x="42.569031"
     y="17.329456"
     id="text1"
     inkscape:label="text1"><tspan
       sodipodi:role="line"
       style="font-style:normal;font-variant:normal;font-weight:bold;font-stretch:normal;font-size:14px;font-family:'.Aqua Kana';-inkscape-font-specification:'.Aqua Kana';fill:#a668ff;fill-opacity:1;stroke:#eebcfd;stroke-width:0;stroke-dasharray:none;stroke-dashoffset:0;stroke-opacity:1"
       x="42.569031"
       y="17.329456"
       id="tspan3">   INTELLIGENCE</tspan></text>
</svg>
